<?xml version="1.0" encoding="UTF-8" standalone="no"?>
<!-- Created with Inkscape (http://www.inkscape.org/) -->

<svg
   version="1.1"
   id="svg2"
   width="512"
   height="512"
   viewBox="0 0 512 512"
   sodipodi:docname="031-beach.svg"
   inkscape:version="1.2 (1:1.2+202205211824+da316b6974)"
   xmlns:inkscape="http://www.inkscape.org/namespaces/inkscape"
   xmlns:sodipodi="http://sodipodi.sourceforge.net/DTD/sodipodi-0.dtd"
   xmlns="http://www.w3.org/2000/svg"
   xmlns:svg="http://www.w3.org/2000/svg">
  <defs
     id="defs6" />
  <sodipodi:namedview
     id="namedview4"
     pagecolor="#ffffff"
     bordercolor="#000000"
     borderopacity="0.25"
     inkscape:showpageshadow="2"
     inkscape:pageopacity="0.0"
     inkscape:pagecheckerboard="0"
     inkscape:deskcolor="#d1d1d1"
     showgrid="false"
     inkscape:zoom="0.9296875"
     inkscape:cx="253.31092"
     inkscape:cy="256.53782"
     inkscape:window-width="1366"
     inkscape:window-height="704"
     inkscape:window-x="0"
     inkscape:window-y="0"
     inkscape:window-maximized="1"
     inkscape:current-layer="g8" />
  <g
     inkscape:groupmode="layer"
     inkscape:label="Image"
     id="g8">
    <path
       style="fill:#3AAAA6;stroke:none;stroke-width:4;fill-opacity:1"
       d="m 426,0 c -4.424,15.54164 -4.612,26.48588 12,32 L 434,0 h -8 m -56,24 c 4.5988,15.85612 11.3324,22.3868 28,20 L 370,24 m 96,24 24,-24 -24,24 m -36,-4.9076 c -54.032,1.7624 -49.3588,83.1876 4,80.2996 50.316,-2.7232 46.452,-81.9448 -4,-80.2996 m -3.924,15.0772 c 29.464,-5.0096 42.764,41.6032 11.748,48.4816 -32.12,7.1236 -43.8556,-43.0224 -11.748,-48.4816 M 10,288 c 25.57668,-24.6312 37.5084,-58.8176 68,-12 h 8 c 12.3464,-37.612 35.6468,-49.3924 60,-12 h 8 l 20,-36 12,92 C 129.2828,320 56.3748,307.9276 2,324 v 8 l 188,4 8,44 C 142.3808,350.7356 26.38876,325.1672 2,412 c 40.9956,-11.48 63.9144,-49.9272 112,-47.5804 71.702,3.4996 112.6772,83.9244 184,87.4204 24.3372,1.192 62.9972,3.968 72,-23.84 -21.0988,2.84 -42.5716,12.504 -64,11.148 -59.9332,-3.796 -95.6204,-47.73 -100,-103.148 96.412,0 214.26,18.3176 308,-4 v -8 L 406,320 H 202 l -16,-96 28,28 h 8 c 19.446,-55.348 35.1736,-23.448 72,-12 4.2912,-56.8796 40.7508,-20.4072 68,-12 C 351.63,101.0392 201.4908,33.602 94,93.3952 34.4702,126.5092 -23.05056,219.3216 10,288 M 350,76 c 6.1084,18.388 19.7656,16.4456 32,4 l -32,-4 m 132,0 c 5.516,16.6116 16.46,16.426 32,12 v -8 l -32,-4 m -320,12 44,124 -56,8 4,-132 h 8 m 20,0 c 46.2828,19.974 76.498,63.5764 88,112 L 218,212 182,88 m 40,0 c 52.1364,20.7508 92.9152,46.496 116,100 L 286,204 253.5804,132 222,88 m -84,8 v 132 c -20.4856,-7.2944 -32.5032,-5.0856 -52,4 l -4,-56 h -4 l -8,60 -52,8 C 19.06816,192.5244 47.6784,131.4952 98,112 l -12,44 h 8 c 7.1592,-24.804 20.0912,-48.608 44,-60 m 232,44 4,4 24,-24 -4,-4 -24,24 m 100,-24 c -2.388,16.6676 4.144,23.4012 20,28 l -20,-28 m -32,48 v -28 c -18.036,5.9896 -18.036,22.0104 0,28 M 330,356 c 8.9532,26.976 131.048,26.976 140,0 H 330 m -44,32 v 12 h 72 v -12 h -72 m 116,28 v 8 l 4,4 c 41.88,-7.776 66.672,2.576 104,20 0.708,-46.36 -78.488,-43.052 -108,-32 m -244,0 v 4 h 16 l -16,-4 M 30,428 v 12 H 42 V 428 H 30 m 416,40 16,-4 -16,4 m -312,0 4,16 h 4 l 4,-16 h -12 m 228,28 8,16 z"
       id="path293" />
  </g>
</svg>
