<?xml version="1.0" encoding="UTF-8" standalone="no"?>
<svg
   viewBox="0 0 512 512"
   version="1.1"
   id="svg4"
   sodipodi:docname="mc-basic.svg"
   inkscape:version="1.2 (1:1.2+202205211824+da316b6974)"
   width="512"
   height="512"
   xmlns:inkscape="http://www.inkscape.org/namespaces/inkscape"
   xmlns:sodipodi="http://sodipodi.sourceforge.net/DTD/sodipodi-0.dtd"
   xmlns="http://www.w3.org/2000/svg"
   xmlns:svg="http://www.w3.org/2000/svg">
  <defs
     id="defs8" />
  <sodipodi:namedview
     id="namedview6"
     pagecolor="#ffffff"
     bordercolor="#000000"
     borderopacity="0.25"
     inkscape:showpageshadow="2"
     inkscape:pageopacity="0.0"
     inkscape:pagecheckerboard="0"
     inkscape:deskcolor="#d1d1d1"
     showgrid="false"
     inkscape:zoom="0.9296875"
     inkscape:cx="195.22689"
     inkscape:cy="256"
     inkscape:window-width="1366"
     inkscape:window-height="704"
     inkscape:window-x="0"
     inkscape:window-y="0"
     inkscape:window-maximized="1"
     inkscape:current-layer="svg4" />
  <!--! Font Awesome Free 6.1.2 by @fontawesome - https://fontawesome.com License - https://fontawesome.com/license/free (Icons: CC BY 4.0, Fonts: SIL OFL 1.1, Code: MIT License) Copyright 2022 Fonticons, Inc. -->
  <path
     d="m 306,96 c 26.5,0 48,-21.5 48,-48 0,-26.5 -21.5,-48 -48,-48 -26.5,0 -48,21.5 -48,48 0,26.5 21.5,48 48,48 z M 146.01,287.1 c 7.31,0 13.97,-4.762 15.87,-11.86 L 203,117 c 0.3468,-1.291 0.5125,-2.588 0.5125,-3.866 0,-7.011 -4.986,-13.44 -12.39,-15.13 C 184.4,96.38 177.7,95.6 171.1,95.6 c -36.65,0 -70,23.84 -79.32,59.53 L 66.5119,253.3 c -0.3483,1.3 -0.5144,2.6 -0.5144,3.9 0,7.003 4.961,13.42 12.36,15.11 L 142.01,287.5 c 1.34,0.3 2.68,-0.4 4,-0.4 z M 434,160 h -15.1 c -8.875,0 -15.1,7.125 -15.1,16 v 16 H 369.05 L 322.3,145.25 C 309.4,134.1 294.6,128 278.9,128 c -27,0 -50.4,18.3 -57,44.5 L 195,280.3 c -0.6,2.5 -1,5.2 -1,7.8 0,8.325 3.265,16.44 9.354,22.53 l 86.62,86.63 V 480 c 0,17.62 14.37,32 31.1,32 16.73,0 32,-14.38 32,-32 v -82.75 c 0,-17.12 -6.625,-33.13 -18.75,-45.25 l -46.87,-46.88 c 0.25,-0.5 0.5,-0.875 0.625,-1.375 l 19.1,-79.5 22.37,22.38 C 337.4,252.6 345.5,256 354,256 h 47.1 v 240 c 0,8.875 7.125,16 15.1,16 h 15.1 c 11.6,0 18.7,-7.1 18.7,-16 V 176 c 0,-8.9 -7.1,-16 -16,-16 z M 147.01,472.3 c -0.672,2.63 -0.993,5.267 -0.993,7.86 0,14.29 9.749,27.29 24.24,30.89 2.643,0.75 5.243,0.95 7.743,0.95 14.37,0 27.37,-9.75 30.1,-24.25 l 25.25,-101 L 180.6,334 Z"
     id="path2"
     style="fill:#03ce94;fill-opacity:0.25" />
</svg>
