<?xml version="1.0" encoding="UTF-8" standalone="no"?>
<svg
   width="24"
   height="24"
   version="1.1"
   id="svg4"
   sodipodi:docname="bxs-quote-right.svg"
   inkscape:version="1.2 (1:1.2+202205211824+da316b6974)"
   xmlns:inkscape="http://www.inkscape.org/namespaces/inkscape"
   xmlns:sodipodi="http://sodipodi.sourceforge.net/DTD/sodipodi-0.dtd"
   xmlns="http://www.w3.org/2000/svg"
   xmlns:svg="http://www.w3.org/2000/svg">
  <defs
     id="defs8" />
  <sodipodi:namedview
     id="namedview6"
     pagecolor="#ffffff"
     bordercolor="#000000"
     borderopacity="0.25"
     inkscape:showpageshadow="2"
     inkscape:pageopacity="0.0"
     inkscape:pagecheckerboard="0"
     inkscape:deskcolor="#d1d1d1"
     showgrid="false"
     inkscape:zoom="19.833333"
     inkscape:cx="12.02521"
     inkscape:cy="12"
     inkscape:window-width="1366"
     inkscape:window-height="704"
     inkscape:window-x="0"
     inkscape:window-y="0"
     inkscape:window-maximized="1"
     inkscape:current-layer="svg4" />
  <path
     d="M 20.309,6.292 C 22.196,8.34 22.006,10.97 22,11 v 8 a 1,-1 0 0 1 -1,1 h -6 c -1.103,0 -2,-0.897 -2,-2 v -7 a 1,-1 0 0 1 1,-1 h 3.078 A 2.89,-2.89 0 0 0 16.649,8.604 C 16.141,7.803 15.184,7.256 13.803,6.98 L 13,6.82 V 4 h 1 c 2.783,0 4.906,0.771 6.309,2.292 z m -11.007,0 C 11.19,8.34 10.999,10.97 10.993,11 v 8 a 1,-1 0 0 1 -1,1 h -6 c -1.103,0 -2,-0.897 -2,-2 v -7 a 1,-1 0 0 1 1,-1 H 6.071 A 2.89,-2.89 0 0 0 5.642,8.604 C 5.134,7.803 4.177,7.256 2.796,6.98 L 1.993,6.82 V 4 h 1 c 2.783,0 4.906,0.771 6.309,2.292 z"
     id="path2"
     style="fill:#03ce94;fill-opacity:1" />
</svg>
