<?xml version="1.0" encoding="UTF-8" standalone="no"?>
<svg
   width="24"
   height="24"
   version="1.1"
   id="svg4"
   sodipodi:docname="bxs-bus.svg"
   inkscape:version="1.2 (1:1.2+202205211824+da316b6974)"
   xmlns:inkscape="http://www.inkscape.org/namespaces/inkscape"
   xmlns:sodipodi="http://sodipodi.sourceforge.net/DTD/sodipodi-0.dtd"
   xmlns="http://www.w3.org/2000/svg"
   xmlns:svg="http://www.w3.org/2000/svg">
  <defs
     id="defs8" />
  <sodipodi:namedview
     id="namedview6"
     pagecolor="#ffffff"
     bordercolor="#000000"
     borderopacity="0.25"
     inkscape:showpageshadow="2"
     inkscape:pageopacity="0.0"
     inkscape:pagecheckerboard="0"
     inkscape:deskcolor="#d1d1d1"
     showgrid="false"
     inkscape:zoom="19.708333"
     inkscape:cx="11.289641"
     inkscape:cy="12.02537"
     inkscape:window-width="1366"
     inkscape:window-height="704"
     inkscape:window-x="0"
     inkscape:window-y="0"
     inkscape:window-maximized="1"
     inkscape:current-layer="svg4" />
  <path
     d="M21 6.021c.003-.146-.007-1.465-1.3-2.735C18.427 2.036 17.143 2 17 2H6.996c-.239 0-1.493.063-2.708 1.302C3.036 4.578 3 5.859 3 6v3H2v3h1v6c0 .734.406 1.373 1 1.721V21a1 1 0 0 0 1 1h1a1 1 0 0 0 1-1v-1h10v1a1 1 0 0 0 1 1h1a1 1 0 0 0 1-1v-1.277A1.99 1.99 0 0 0 21 18v-6h1V9h-1V6.021zM9 4h6v2H9V4zM6.5 18a1.5 1.5 0 1 1 .001-3.001A1.5 1.5 0 0 1 6.5 18zm4.5-5H5V8h6v5zm6.5 5a1.5 1.5 0 1 1 .001-3.001A1.5 1.5 0 0 1 17.5 18zm1.5-5h-6V8h6v5z"
     id="path2"
     style="fill:#3AAAA6;fill-opacity:1" />
</svg>
