<?xml version="1.0" encoding="UTF-8" standalone="no"?>
<!-- Created with Inkscape (http://www.inkscape.org/) -->

<svg
   version="1.1"
   id="svg2"
   width="512"
   height="512"
   viewBox="0 0 512 512"
   sodipodi:docname="023-salad.svg"
   inkscape:version="1.2 (1:1.2+202205211824+da316b6974)"
   xmlns:inkscape="http://www.inkscape.org/namespaces/inkscape"
   xmlns:sodipodi="http://sodipodi.sourceforge.net/DTD/sodipodi-0.dtd"
   xmlns="http://www.w3.org/2000/svg"
   xmlns:svg="http://www.w3.org/2000/svg">
  <defs
     id="defs6" />
  <sodipodi:namedview
     id="namedview4"
     pagecolor="#ffffff"
     bordercolor="#000000"
     borderopacity="0.25"
     inkscape:showpageshadow="2"
     inkscape:pageopacity="0.0"
     inkscape:pagecheckerboard="0"
     inkscape:deskcolor="#d1d1d1"
     showgrid="false"
     inkscape:zoom="0.9296875"
     inkscape:cx="253.31092"
     inkscape:cy="256.53782"
     inkscape:window-width="1366"
     inkscape:window-height="704"
     inkscape:window-x="0"
     inkscape:window-y="0"
     inkscape:window-maximized="1"
     inkscape:current-layer="g8" />
  <g
     inkscape:groupmode="layer"
     inkscape:label="Image"
     id="g8">
    <path
       style="fill:#3AAAA6;stroke:none;stroke-width:4;fill-opacity:1"
       d="m 186,36 4,4 32,-24 c 23.8264,71.622 -20.8992,126.5956 -96,96 17.4172,-17.4172 47.7812,-37.2364 44,-64 -15.7988,11.1288 -59.0732,41.7976 -56.3148,63.8272 6.7624,54.0088 100.2196,19.3884 118.7376,-3.8888 C 270.9068,59.564 222.78,-42.8092 186,36 M 339.114,4.28392 c -12.6848,7.05936 -27.826,52.97888 -14.6416,63.58968 11.3764,9.1556 41.628,-0.3732 52.9352,-6.4816 C 408.864,44.3976 366.0068,-10.68224 339.114,4.28392 M 374,48 l -40,8 8,-40 c 19.1296,3.89496 28.1052,12.8704 32,32 m -180,8 c 9.5056,13.0528 18.9892,11.1904 24,-4 l -24,4 m 36,116 C 175.4564,143.458 52.478,118.3712 46.8548,212 44.7808,246.5348 73.7976,276.6476 78,312 29.62768,313.5752 49.4584,365.2072 60.784,396 80.5592,449.768 137.2484,511.16 198,511.984 273.8984,513.016 347.2324,523.36 404.288,463.316 428.656,437.672 503.96,314.4084 430,312 l 35.9,-32.3736 -9.368,-45.324 L 467.596,192 430,112 h -4 v 36 c -34.2312,-31.122 -43.1692,-47.8936 -92,-28 21.0072,-26.748 42.086,-22.838 72,-16 l 4,-4 V 92 C 380.554,79.5748 344.9676,79.636 322,104 311.282,93.2832 297.2964,73.2432 282.0156,69.3828 250.2168,61.3496 240.1852,152.5312 230,172 M 186,76 c 2.306,13.898 6.1024,17.694 20,20 L 186,76 m 156,72 -32,40 C 261.9688,174.6108 253.3532,123.3892 274,84 l 68,64 m -172,-36 4,-24 c -15.2536,5.1188 -14.6668,13.2472 -4,24 m 108,12 v 8 h 28 l -28,-8 m 72,12 c 45.554,-46.5104 62.136,50.0064 16.1792,15.5124 C 360.3576,147.1432 355.1384,141.0736 350,136 m -44,12 -12,24 c 13.824,-4.2 20.7256,-10.8196 12,-24 m -160,24 c -61.2728,6.0284 -87.856,29.4088 -48,88 -87.15972,-3.7468 1.0248,-154.4876 48,-88 m 228,16 h 4 c 16.4716,-19.8632 69.232,-41.7244 74.924,0.0616 2.892,21.2096 -12.596,39.1256 -22.924,55.9384 39.9,21.3956 11.652,45.3588 -20,52 l 4,8 v 4 c -62.0616,-28.9416 -34.3784,-56.1292 -4,-96 -24.1556,1.0292 -39.8,23.8 -56,40 h -4 c -23.2552,-23.2372 -39.0888,-43.5188 -64,-12 h -4 c 0.1132,-31.9956 8.3136,-39.8932 40,-36 3.9416,-38.2344 30.6588,-52.4804 52,-16 m -104,64 -72,-36 20,32 -48,48 c -32.4132,-21.1024 -0.7356,-27.398 -2.1452,-52.358 -1.3212,-23.3996 -35.414,-51.5084 -1.3208,-70.9228 24.0796,-13.712 37.694,11.0828 59.108,12.932 15.7712,1.362 34.13,-31.1408 47.4228,-5.0556 C 280.2116,194.6204 268.5364,233.4272 270,252 M 138,192 c -18.4712,14.6096 -33.1832,22.7112 -36,48 -31.2216,-28.8776 0.2312,-64.8936 36,-48 m 16,56 c -25.0172,21.5932 -15.1604,41.8116 8,60 -17.264,7.2444 -75.5084,12.0008 -69.8304,-19.886 2.6528,-14.8956 19.226,-16.7136 24.426,-29.2096 4.9712,-11.9464 -7.5372,-39.892 13.4076,-43.2192 C 143.7284,213.5048 150.6384,238.6308 154,248 m 172,64 h -16 c -7.5984,-31.7096 -20.6148,-48.3028 -4,-80 24.5024,12.4784 13.2016,54.3044 20,80 m -32,0 C 268.1364,296.6668 251.254,253.5812 214.4196,282.0556 203.0928,290.8116 197.9676,304.192 186,312 c -2.9144,-68.0512 100.7988,-64.662 108,0 m 44,-52 48,52 c -29.892,-0.0232 -69.1172,-14.9248 -48,-52 m -72,52 h -56 c 10.5616,-29.3672 46.8656,-31.488 56,0 m 180,12 v 32 l -80,4 v 8 l 72,4 C 411.716,547.36 99.688,543.868 70,372 H 342 C 328.8388,348.1324 293.856,356 270,356 H 62 v -32 z"
       id="path293" />
  </g>
</svg>
