<?xml version="1.0" encoding="UTF-8" standalone="no"?>
<svg
   viewBox="0 0 576 512"
   version="1.1"
   id="svg4"
   sodipodi:docname="star-fi.svg"
   inkscape:version="1.2 (1:1.2+202205211824+da316b6974)"
   xmlns:inkscape="http://www.inkscape.org/namespaces/inkscape"
   xmlns:sodipodi="http://sodipodi.sourceforge.net/DTD/sodipodi-0.dtd"
   xmlns="http://www.w3.org/2000/svg"
   xmlns:svg="http://www.w3.org/2000/svg">
  <defs
     id="defs8" />
  <sodipodi:namedview
     id="namedview6"
     pagecolor="#ffffff"
     bordercolor="#000000"
     borderopacity="0.25"
     inkscape:showpageshadow="2"
     inkscape:pageopacity="0.0"
     inkscape:pagecheckerboard="0"
     inkscape:deskcolor="#d1d1d1"
     showgrid="false"
     inkscape:zoom="0.9296875"
     inkscape:cx="288.80672"
     inkscape:cy="256"
     inkscape:window-width="1366"
     inkscape:window-height="704"
     inkscape:window-x="0"
     inkscape:window-y="0"
     inkscape:window-maximized="1"
     inkscape:current-layer="svg4" />
  <!--! Font Awesome Free 6.1.2 by @fontawesome - https://fontawesome.com License - https://fontawesome.com/license/free (Icons: CC BY 4.0, Fonts: SIL OFL 1.1, Code: MIT License) Copyright 2022 Fonticons, Inc. -->
  <path
     d="m 381.2,151.3391 143.7,21.2 c 11.9,1.7 21.9,10.1 25.7,21.6 3.8,11.6 0.7,24.2 -7.9,32.8 l -104.2,102.2 24.6,146.6 c 2,12 -2.9,24.2 -12.9,31.3 -9.9,7.1 -23,8 -33.7,2.3 l -128.4,-68.5 -128.3,68.5 c -10.8,5.7 -23.9,4.8 -33.8,-2.3 -9.9,-7.1 -14.9,-19.3 -12.8,-31.3 l 24.6,-146.6 -104.22,-102.2 c -8.61,-8.6 -11.67,-21.2 -7.89,-32.8 3.77,-11.5 13.74,-19.9 25.73,-21.6 l 143.58,-21.2 64.4,-132.33 C 264.7,7.9931 275.9,1 288.1,1 c 12.3,0 23.5,6.9931 28.8,18.0091 z"
     id="path2"
     style="fill:#706c61;fill-opacity:0.27000001" />
</svg>
