<?xml version="1.0" encoding="UTF-8" standalone="no"?>
<!-- Created with Inkscape (http://www.inkscape.org/) -->

<svg
   version="1.1"
   id="svg2"
   width="512"
   height="512"
   viewBox="0 0 512 512"
   sodipodi:docname="034-winter.svg"
   inkscape:version="1.2 (1:1.2+202205211824+da316b6974)"
   xmlns:inkscape="http://www.inkscape.org/namespaces/inkscape"
   xmlns:sodipodi="http://sodipodi.sourceforge.net/DTD/sodipodi-0.dtd"
   xmlns="http://www.w3.org/2000/svg"
   xmlns:svg="http://www.w3.org/2000/svg">
  <defs
     id="defs6" />
  <sodipodi:namedview
     id="namedview4"
     pagecolor="#ffffff"
     bordercolor="#000000"
     borderopacity="0.25"
     inkscape:showpageshadow="2"
     inkscape:pageopacity="0.0"
     inkscape:pagecheckerboard="0"
     inkscape:deskcolor="#d1d1d1"
     showgrid="false"
     inkscape:zoom="0.9296875"
     inkscape:cx="253.31092"
     inkscape:cy="256.53782"
     inkscape:window-width="1366"
     inkscape:window-height="704"
     inkscape:window-x="0"
     inkscape:window-y="0"
     inkscape:window-maximized="1"
     inkscape:current-layer="g8" />
  <g
     inkscape:groupmode="layer"
     inkscape:label="Image"
     id="g8">
    <path
       style="fill:#3AAAA6;stroke:none;stroke-width:4;fill-opacity:1"
       d="m 170,0 -4,24 c 13.6888,-4.54264 15.1348,-10.28008 12,-24 h -8 m 300,0 v 24 h 8 V 0 h -8 M 134,36 v 8 h 24 v -8 h -24 m 56,-4 v 16 l 24,-4 v -8 l -24,-4 m 244,4 v 8 h 24 v -8 h -24 m 56,0 v 8 h 24 v -8 h -24 m -324,20 4,24 h 8 c 3.1348,-13.72 1.6888,-19.4572 -12,-24 m 304,0 v 24 h 8 V 56 h -8 M 334,108 302,88 c 6.0228,21.4576 28.0936,33.7688 31.4044,56 4.5568,30.598 -17.0256,36.188 -38.494,17.46 C 280.1144,148.5524 277.666,125.316 270,108 h -8 l -4,4 8,36 -40,-20 -4,4 36,28 v 4 l -32,4 v 16 c 17.5788,-2.3672 38.474,-12.2732 56,-7.006 29.492,8.8632 34.4908,32.1492 3.9968,43.574 C 264.78,228.5172 243.7532,214.5184 222,220 l 36,16 v 4 l -36,28 44,-16 -8,32 4,4 h 8 c 8.1508,-18.3884 11.7796,-39.8248 28.432,-52.8272 14.0196,-10.9468 35.0988,-14.9252 35.0988,8.892 0,26.6628 -31.3388,36.9804 -27.5308,63.9352 l 28,-20 4,40 h 8 l 4,-44 32,24 c 3.3664,-23.3352 -18.416,-29.03 -27.886,-48.0156 -9.2452,-18.5352 2.4536,-42.67 24.17,-30.3392 C 401.8608,243.032 397.0312,275.9116 422,284 l -8,-36 40,20 4,-4 -32,-32 32,-8 v -8 c -20.348,-4.3524 -40.224,8.98 -59.9968,3.006 -27.7056,-8.37 -27.9464,-30.6664 0,-38.7652 18.1848,-5.27 41.0168,3.602 59.9968,3.7592 l -32,-20 32,-32 -44,20 4,-40 h -8 c -6.94,16.1296 -8.506,37.6072 -21.21,50.4352 C 371.432,179.9628 347.45,176.11 350.6696,147.9968 353.4252,123.9364 379.5108,111.1196 386,88 l -36,20 V 68 c -18.7992,6.2392 -15.9864,22.6172 -16,40 M 42,336 C 20.2558,362.9756 -26.56792,420.788 38,428 34.62308,417.3 20.40644,407.088 21.62344,395.784 24.314,370.7964 59.6216,357.4628 62.3736,332.5924 64.204,316.0508 36.59668,323.3456 35.02468,307.4076 32.91752,286.0432 64.6028,266.4412 72.5092,248.074 79.3552,232.1708 63.4748,229.228 62.114,215.4844 60.5884,200.0732 91.91,157.532 106.6912,153.3828 133.8852,145.7488 177.66,212.6576 142,232 v 8 c 70.2932,16.978 13.3588,-114.6748 -35.9876,-105.29 -23.8888,4.5428 -61.0168,53.5448 -62.6668,77.29 -0.8256,11.8808 9.966,22.374 7.7592,33.6976 C 45.1772,276.1128 -17.36248,315.202 42,336 M 339.21,191.0032 c 12.4336,-3.778 19.862,14.0724 6.3548,17.9936 -12.0556,3.5 -18.55,-14.2884 -6.3548,-17.9936 M 162,256 l -4,4 v 8 l 16,4 -4,-16 h -8 M 2,500 v 8 l 160,4 h 232 l 120,-4 v -8 C 439.624,455.088 437.12,323.5076 322,360 l 4,16 c 77.64,-24.6112 123.028,58.756 152,120 -32.076,0 -109.8428,14.108 -133.8828,-9.272 C 291.4212,435.484 265.7944,257.9968 162,287.756 70.0624,314.116 75.0132,453.872 2,500 M 170,301.5924 c 40.8372,-8.8156 102.4996,46.3644 64.7408,84.9016 -19.5368,19.938 -34.2776,-30.4848 -56.2132,-21.7904 -24.5136,9.7168 -15.1344,57.0284 -37.972,64.2884 C 122.4776,434.744 118.936,390.438 116.5184,380 108.4688,345.2448 134.5308,309.2496 170,301.5924 M 470,312 l -4,24 h 16 l -4,-24 h -8 m -36,36 v 8 l 24,4 c -4.544,-13.6888 -10.28,-15.1348 -24,-12 m 56,12 24,-4 v -8 c -13.72,-3.1348 -19.456,-1.6888 -24,12 m -20,8 v 24 h 8 v -24 h -8 m -284,4 c 28.4164,35.776 49.5124,47.036 72,0 27.2692,31.384 56.2732,84.132 68,124 H 34 L 98,376 h 4 c 2.6784,19.8892 16.8248,93.616 50.3272,62.248 C 170.386,421.336 170.5496,391.1428 186,372 Z"
       id="path293" />
  </g>
</svg>
