<?xml version="1.0" encoding="UTF-8" standalone="no"?>
<svg
   width="512"
   height="512"
   viewBox="0 0 512 512"
   version="1.1"
   id="svg24"
   sodipodi:docname="xp-bus.svg"
   inkscape:version="1.2 (1:1.2+202205211824+da316b6974)"
   xmlns:inkscape="http://www.inkscape.org/namespaces/inkscape"
   xmlns:sodipodi="http://sodipodi.sourceforge.net/DTD/sodipodi-0.dtd"
   xmlns="http://www.w3.org/2000/svg"
   xmlns:svg="http://www.w3.org/2000/svg">
  <defs
     id="defs28" />
  <sodipodi:namedview
     id="namedview26"
     pagecolor="#ffffff"
     bordercolor="#000000"
     borderopacity="0.25"
     inkscape:showpageshadow="2"
     inkscape:pageopacity="0.0"
     inkscape:pagecheckerboard="0"
     inkscape:deskcolor="#d1d1d1"
     showgrid="false"
     inkscape:zoom="0.9296875"
     inkscape:cx="256.53782"
     inkscape:cy="255.46218"
     inkscape:window-width="1366"
     inkscape:window-height="704"
     inkscape:window-x="0"
     inkscape:window-y="0"
     inkscape:window-maximized="1"
     inkscape:current-layer="svg24" />
  <title
     id="title2">ionicons-v5-h</title>
  <rect
     x="80"
     y="112"
     width="352"
     height="192"
     rx="32"
     ry="32"
     style="fill:#000000;stroke:#f0fffb;stroke-linecap:round;stroke-linejoin:round;stroke-width:32px;fill-opacity:0;stroke-opacity:1"
     id="rect4" />
  <rect
     x="80"
     y="304"
     width="352"
     height="128"
     rx="32"
     ry="32"
     style="fill:#000000;stroke:#f0fffb;stroke-linecap:round;stroke-linejoin:round;stroke-width:32px;fill-opacity:0;stroke-opacity:1"
     id="rect6" />
  <path
     d="M400,112H112A32.09,32.09,0,0,1,80,80h0a32.09,32.09,0,0,1,32-32H400a32.09,32.09,0,0,1,32,32h0A32.09,32.09,0,0,1,400,112Z"
     style="fill:#000000;stroke:#f0fffb;stroke-linecap:round;stroke-linejoin:round;stroke-width:32px;fill-opacity:0;stroke-opacity:1"
     id="path8" />
  <path
     d="M144,432v22a10,10,0,0,1-10,10H106a10,10,0,0,1-10-10V432Z"
     style="fill:#000000;stroke:#f0fffb;stroke-linecap:round;stroke-linejoin:round;stroke-width:32px;fill-opacity:0;stroke-opacity:1"
     id="path10" />
  <path
     d="M416,432v22a10,10,0,0,1-10,10H378a10,10,0,0,1-10-10V432Z"
     style="fill:#000000;stroke:#f0fffb;stroke-linecap:round;stroke-linejoin:round;stroke-width:32px;fill-opacity:0;stroke-opacity:1"
     id="path12" />
  <circle
     cx="368"
     cy="368"
     r="16"
     style="fill:#000000;stroke:#f0fffb;stroke-linejoin:round;stroke-width:32px;fill-opacity:0;stroke-opacity:1"
     id="circle14" />
  <circle
     cx="144"
     cy="368"
     r="16"
     style="fill:#000000;stroke:#f0fffb;stroke-linejoin:round;stroke-width:32px;fill-opacity:0;stroke-opacity:1"
     id="circle16" />
  <line
     x1="256"
     y1="112"
     x2="256"
     y2="304"
     style="fill:#000000;stroke:#f0fffb;stroke-linecap:round;stroke-linejoin:round;stroke-width:32px;fill-opacity:0;stroke-opacity:1"
     id="line18" />
  <line
     x1="80"
     y1="80"
     x2="80"
     y2="368"
     style="fill:#000000;stroke:#f0fffb;stroke-linecap:round;stroke-linejoin:round;stroke-width:32px;fill-opacity:0;stroke-opacity:1"
     id="line20" />
  <line
     x1="432"
     y1="80"
     x2="432"
     y2="368"
     style="fill:#000000;stroke:#f0fffb;stroke-linecap:round;stroke-linejoin:round;stroke-width:32px;fill-opacity:0;stroke-opacity:1"
     id="line22" />
</svg>
