<?xml version="1.0" encoding="UTF-8" standalone="no"?>
<svg
   width="512"
   height="512"
   viewBox="0 0 512 512"
   version="1.1"
   id="svg12"
   sodipodi:docname="xp-train.svg"
   inkscape:version="1.2 (1:1.2+202205211824+da316b6974)"
   xmlns:inkscape="http://www.inkscape.org/namespaces/inkscape"
   xmlns:sodipodi="http://sodipodi.sourceforge.net/DTD/sodipodi-0.dtd"
   xmlns="http://www.w3.org/2000/svg"
   xmlns:svg="http://www.w3.org/2000/svg">
  <defs
     id="defs16" />
  <sodipodi:namedview
     id="namedview14"
     pagecolor="#ffffff"
     bordercolor="#000000"
     borderopacity="0.25"
     inkscape:showpageshadow="2"
     inkscape:pageopacity="0.0"
     inkscape:pagecheckerboard="0"
     inkscape:deskcolor="#d1d1d1"
     showgrid="false"
     inkscape:zoom="0.9296875"
     inkscape:cx="256.53782"
     inkscape:cy="255.46218"
     inkscape:window-width="1366"
     inkscape:window-height="704"
     inkscape:window-x="0"
     inkscape:window-y="0"
     inkscape:window-maximized="1"
     inkscape:current-layer="svg12" />
  <title
     id="title2">ionicons-v5-q</title>
  <path
     d="M344,48H320a16,16,0,0,0-16-16H208a16,16,0,0,0-16,16H168a56.16,56.16,0,0,0-56,56V351c0,35.3,144,65,144,65s144-29.7,144-65V104A56,56,0,0,0,344,48ZM256,352a48,48,0,1,1,48-48A48,48,0,0,1,256,352Zm96-160a16,16,0,0,1-16,16H176a16,16,0,0,1-16-16V128a16,16,0,0,1,16-16H336a16,16,0,0,1,16,16Z"
     style="fill:none;stroke:#f0fffb;stroke-linecap:round;stroke-linejoin:round;stroke-width:32px;stroke-opacity:1"
     id="path4" />
  <line
     x1="144"
     y1="464"
     x2="368"
     y2="464"
     style="fill:none;stroke:#f0fffb;stroke-linecap:round;stroke-linejoin:round;stroke-width:32px;stroke-opacity:1"
     id="line6" />
  <line
     x1="336"
     y1="432"
     x2="384"
     y2="480"
     style="fill:none;stroke:#f0fffb;stroke-linecap:round;stroke-linejoin:round;stroke-width:32px;stroke-opacity:1"
     id="line8" />
  <line
     x1="176"
     y1="432"
     x2="128"
     y2="480"
     style="fill:none;stroke:#f0fffb;stroke-linecap:round;stroke-linejoin:round;stroke-width:32px;stroke-opacity:1"
     id="line10" />
</svg>
