<?xml version="1.0" encoding="UTF-8" standalone="no"?>
<svg
   width="512"
   height="512"
   viewBox="0 0 512 512"
   version="1.1"
   id="svg10"
   sodipodi:docname="logo-instagram.svg"
   inkscape:version="1.2 (1:1.2+202205211824+da316b6974)"
   xmlns:inkscape="http://www.inkscape.org/namespaces/inkscape"
   xmlns:sodipodi="http://sodipodi.sourceforge.net/DTD/sodipodi-0.dtd"
   xmlns="http://www.w3.org/2000/svg"
   xmlns:svg="http://www.w3.org/2000/svg">
  <defs
     id="defs14" />
  <sodipodi:namedview
     id="namedview12"
     pagecolor="#ffffff"
     bordercolor="#000000"
     borderopacity="0.25"
     inkscape:showpageshadow="2"
     inkscape:pageopacity="0.0"
     inkscape:pagecheckerboard="0"
     inkscape:deskcolor="#d1d1d1"
     showgrid="false"
     inkscape:zoom="0.9296875"
     inkscape:cx="245.78151"
     inkscape:cy="255.46218"
     inkscape:window-width="1366"
     inkscape:window-height="704"
     inkscape:window-x="0"
     inkscape:window-y="0"
     inkscape:window-maximized="1"
     inkscape:current-layer="svg10" />
  <title
     id="title2">ionicons-v5_logos</title>
  <path
     d="M349.33,69.33a93.62,93.62,0,0,1,93.34,93.34V349.33a93.62,93.62,0,0,1-93.34,93.34H162.67a93.62,93.62,0,0,1-93.34-93.34V162.67a93.62,93.62,0,0,1,93.34-93.34H349.33m0-37.33H162.67C90.8,32,32,90.8,32,162.67V349.33C32,421.2,90.8,480,162.67,480H349.33C421.2,480,480,421.2,480,349.33V162.67C480,90.8,421.2,32,349.33,32Z"
     id="path4"
     style="fill:#012309;fill-opacity:1" />
  <path
     d="M377.33,162.67a28,28,0,1,1,28-28A27.94,27.94,0,0,1,377.33,162.67Z"
     id="path6"
     style="fill:#012309;fill-opacity:1" />
  <path
     d="M256,181.33A74.67,74.67,0,1,1,181.33,256,74.75,74.75,0,0,1,256,181.33M256,144A112,112,0,1,0,368,256,112,112,0,0,0,256,144Z"
     id="path8"
     style="fill:#012309;fill-opacity:1" />
</svg>
