<?xml version="1.0" encoding="UTF-8" standalone="no"?>
<svg
   width="512"
   height="512"
   viewBox="0 0 512 512"
   version="1.1"
   id="svg6"
   sodipodi:docname="send.svg"
   inkscape:version="1.2 (1:1.2+202205211824+da316b6974)"
   xmlns:inkscape="http://www.inkscape.org/namespaces/inkscape"
   xmlns:sodipodi="http://sodipodi.sourceforge.net/DTD/sodipodi-0.dtd"
   xmlns="http://www.w3.org/2000/svg"
   xmlns:svg="http://www.w3.org/2000/svg">
  <defs
     id="defs10" />
  <sodipodi:namedview
     id="namedview8"
     pagecolor="#ffffff"
     bordercolor="#000000"
     borderopacity="0.25"
     inkscape:showpageshadow="2"
     inkscape:pageopacity="0.0"
     inkscape:pagecheckerboard="0"
     inkscape:deskcolor="#d1d1d1"
     showgrid="false"
     inkscape:zoom="0.9296875"
     inkscape:cx="245.78151"
     inkscape:cy="256"
     inkscape:window-width="1366"
     inkscape:window-height="704"
     inkscape:window-x="0"
     inkscape:window-y="0"
     inkscape:window-maximized="1"
     inkscape:current-layer="svg6" />
  <title
     id="title2">ionicons-v5-q</title>
  <path
     d="M476.59,227.05l-.16-.07L49.35,49.84A23.56,23.56,0,0,0,27.14,52,24.65,24.65,0,0,0,16,72.59V185.88a24,24,0,0,0,19.52,23.57l232.93,43.07a4,4,0,0,1,0,7.86L35.53,303.45A24,24,0,0,0,16,327V440.31A23.57,23.57,0,0,0,26.59,460a23.94,23.94,0,0,0,13.22,4,24.55,24.55,0,0,0,9.52-1.93L476.4,285.94l.19-.09a32,32,0,0,0,0-58.8Z"
     id="path4"
     style="fill:#06e03c;fill-opacity:1" />
</svg>
